<svg width="640" height="360" viewBox="0 0 640 360" fill="none" xmlns="http://www.w3.org/2000/svg">
    <rect width="640" height="360" rx="24" fill="#041A1B"/>
    <rect x="26" y="26" width="588" height="308" rx="20" fill="url(#bg)"/>
    <rect x="54" y="64" width="174" height="18" rx="9" fill="#F0B33A" fill-opacity=".85"/>
    <rect x="54" y="96" width="272" height="44" rx="16" fill="#FFFFFF" fill-opacity=".92"/>
    <rect x="54" y="158" width="272" height="18" rx="9" fill="#D7E4E4" fill-opacity=".74"/>
    <rect x="54" y="192" width="272" height="18" rx="9" fill="#D7E4E4" fill-opacity=".52"/>
    <rect x="356" y="64" width="226" height="134" rx="22" fill="#081F24" stroke="#2CC295" stroke-opacity=".35"/>
    <circle cx="469" cy="131" r="36" fill="#2CC295" fill-opacity=".2"/>
    <path d="M484.5 131L459 145.722V116.278L484.5 131Z" fill="#F0B33A"/>
    <rect x="54" y="238" width="528" height="58" rx="18" fill="#081F24" stroke="#F0B33A" stroke-opacity=".2"/>
    <rect x="76" y="258" width="126" height="18" rx="9" fill="#FFFFFF" fill-opacity=".9"/>
    <rect x="220" y="258" width="90" height="18" rx="9" fill="#2CC295" fill-opacity=".7"/>
    <rect x="328" y="258" width="112" height="18" rx="9" fill="#F0B33A" fill-opacity=".8"/>
    <rect x="458" y="258" width="102" height="18" rx="9" fill="#FFFFFF" fill-opacity=".5"/>
    <defs>
        <linearGradient id="bg" x1="26" y1="26" x2="614" y2="334" gradientUnits="userSpaceOnUse">
            <stop stop-color="#0D3B3F"/>
            <stop offset="1" stop-color="#062629"/>
        </linearGradient>
    </defs>
</svg>
