<svg width="640" height="360" viewBox="0 0 640 360" fill="none" xmlns="http://www.w3.org/2000/svg">
    <rect width="640" height="360" rx="28" fill="#041416"/>
    <rect x="22" y="22" width="596" height="316" rx="26" fill="url(#shell)" stroke="url(#shellStroke)" stroke-opacity=".55"/>
    <rect x="42" y="42" width="556" height="276" rx="24" fill="#07181B" fill-opacity=".72" stroke="#FFFFFF" stroke-opacity=".06"/>

    <rect x="64" y="62" width="148" height="12" rx="6" fill="#58D6B0" fill-opacity=".88"/>
    <rect x="64" y="84" width="244" height="26" rx="13" fill="#F4F8F8" fill-opacity=".96"/>
    <rect x="64" y="120" width="312" height="12" rx="6" fill="#D0DEDE" fill-opacity=".62"/>

    <rect x="64" y="152" width="248" height="70" rx="18" fill="#0C2226" stroke="#FFFFFF" stroke-opacity=".08"/>
    <rect x="76" y="164" width="88" height="9" rx="4.5" fill="#9EB5B4" fill-opacity=".8"/>
    <rect x="76" y="181" width="152" height="16" rx="8" fill="#FFFFFF" fill-opacity=".94"/>
    <rect x="76" y="204" width="120" height="8" rx="4" fill="#B9CACA" fill-opacity=".58"/>

    <rect x="328" y="152" width="248" height="70" rx="18" fill="#0C2226" stroke="#FFFFFF" stroke-opacity=".08"/>
    <rect x="340" y="164" width="78" height="9" rx="4.5" fill="#9EB5B4" fill-opacity=".8"/>
    <rect x="340" y="181" width="168" height="16" rx="8" fill="#FFFFFF" fill-opacity=".94"/>
    <rect x="340" y="204" width="108" height="8" rx="4" fill="#B9CACA" fill-opacity=".58"/>

    <rect x="64" y="238" width="512" height="48" rx="18" fill="#021012" stroke="#FFFFFF" stroke-opacity=".08"/>
    <rect x="82" y="250" width="28" height="24" rx="12" fill="#2CC295" fill-opacity=".18"/>
    <path d="M92 255.5V268.5L103 262L92 255.5Z" fill="#F0B33A"/>
    <rect x="122" y="258" width="238" height="8" rx="4" fill="#1D3A3C"/>
    <rect x="122" y="258" width="132" height="8" rx="4" fill="#2CC295"/>
    <circle cx="254" cy="262" r="6" fill="#F7FCFC"/>
    <rect x="376" y="254" width="38" height="16" rx="8" fill="#C9D8D8" fill-opacity=".78"/>
    <rect x="428" y="250" width="52" height="24" rx="12" fill="#163033"/>
    <rect x="438" y="258" width="18" height="8" rx="4" fill="#E7F2F2" fill-opacity=".92"/>
    <rect x="492" y="252" width="64" height="20" rx="10" fill="#163033"/>
    <rect x="504" y="258" width="40" height="8" rx="4" fill="#E7F2F2" fill-opacity=".92"/>

    <rect x="64" y="300" width="250" height="1" fill="#FFFFFF" fill-opacity=".06"/>
    <rect x="64" y="312" width="148" height="8" rx="4" fill="#95ABAB" fill-opacity=".58"/>

    <g opacity=".98">
        <rect x="390" y="64" width="186" height="246" rx="24" fill="#081C20" stroke="#FFFFFF" stroke-opacity=".08"/>
        <rect x="406" y="82" width="154" height="54" rx="16" fill="#0E2328" stroke="#2CC295" stroke-opacity=".24"/>
        <rect x="420" y="96" width="70" height="8" rx="4" fill="#95ABAB" fill-opacity=".82"/>
        <rect x="420" y="111" width="102" height="14" rx="7" fill="#FFFFFF" fill-opacity=".95"/>
        <rect x="534" y="98" width="14" height="22" rx="7" fill="#163033"/>

        <rect x="406" y="146" width="154" height="54" rx="16" fill="#0E2328" stroke="#F0B33A" stroke-opacity=".22"/>
        <rect x="420" y="160" width="84" height="8" rx="4" fill="#95ABAB" fill-opacity=".82"/>
        <rect x="420" y="175" width="96" height="14" rx="7" fill="#FFFFFF" fill-opacity=".95"/>
        <circle cx="538" cy="173" r="12" fill="#163033"/>
        <rect x="532" y="167" width="12" height="12" rx="6" fill="#F0B33A"/>

        <rect x="406" y="212" width="154" height="82" rx="18" fill="#0E2328" stroke="#FFFFFF" stroke-opacity=".08"/>
        <rect x="420" y="226" width="74" height="8" rx="4" fill="#95ABAB" fill-opacity=".82"/>
        <rect x="420" y="241" width="120" height="10" rx="5" fill="#D6E4E4" fill-opacity=".72"/>
        <rect x="420" y="260" width="112" height="10" rx="5" fill="#D6E4E4" fill-opacity=".46"/>
        <rect x="420" y="278" width="88" height="10" rx="5" fill="#2CC295" fill-opacity=".72"/>
    </g>

    <defs>
        <linearGradient id="shell" x1="56" y1="30" x2="575" y2="336" gradientUnits="userSpaceOnUse">
            <stop stop-color="#0B2C30"/>
            <stop offset=".54" stop-color="#06181B"/>
            <stop offset="1" stop-color="#040D0F"/>
        </linearGradient>
        <linearGradient id="shellStroke" x1="22" y1="22" x2="618" y2="338" gradientUnits="userSpaceOnUse">
            <stop stop-color="#2CC295"/>
            <stop offset="1" stop-color="#F0B33A"/>
        </linearGradient>
    </defs>
</svg>
